<svg width="171" height="51" viewBox="0 0 171 51" fill="none" xmlns="http://www.w3.org/2000/svg">
<g filter="url(#filter0_d_111_7932)">
<rect width="48.8603" height="48.8603" rx="24.4302" fill="#0060F7"/>
<g clip-path="url(#clip0_111_7932)">
<rect x="6.25331" y="6.25342" width="36.3538" height="36.3538" rx="18.1769" fill="white"/>
<rect x="21.4095" y="11.7646" width="25.4371" height="25.4371" rx="12.7185" fill="#0060F7"/>
</g>
</g>
<path d="M65.9933 35.7354C64.4467 35.7354 63.0324 35.4709 61.7504 34.9418C60.4684 34.4127 59.3593 33.6598 58.4232 32.683C57.4872 31.6858 56.7546 30.5157 56.2255 29.1727C55.7167 27.8092 55.4624 26.3237 55.4624 24.7161C55.4624 23.1695 55.7371 21.7349 56.2865 20.4121C56.836 19.0894 57.5991 17.9295 58.5759 16.9324C59.5526 15.9352 60.6922 15.1619 61.9946 14.6125C63.297 14.0631 64.7113 13.7883 66.2375 13.7883C67.2753 13.7883 68.2826 13.941 69.2594 14.2462C70.2362 14.5514 71.1316 14.9788 71.9456 15.5282C72.7596 16.0573 73.4413 16.678 73.9907 17.3902L71.4572 20.1679C70.9281 19.6185 70.3787 19.1606 69.8089 18.7943C69.2594 18.4077 68.6795 18.1228 68.069 17.9397C67.4788 17.7362 66.8683 17.6344 66.2375 17.6344C65.3014 17.6344 64.4162 17.8074 63.5819 18.1533C62.7679 18.4993 62.0557 18.9877 61.4452 19.6185C60.855 20.2493 60.387 21.0023 60.041 21.8773C59.6951 22.732 59.5221 23.6884 59.5221 24.7466C59.5221 25.8251 59.6849 26.8019 60.0105 27.677C60.3565 28.552 60.8347 29.3049 61.4452 29.9358C62.076 30.5666 62.8188 31.055 63.6734 31.4009C64.5485 31.7265 65.5049 31.8893 66.5427 31.8893C67.2143 31.8893 67.8655 31.7978 68.4963 31.6146C69.1272 31.4315 69.7071 31.1771 70.2362 30.8515C70.7856 30.5056 71.2842 30.1087 71.7319 29.6611L73.6855 32.8051C73.1971 33.3545 72.5459 33.8531 71.7319 34.3008C70.9179 34.7485 70.0022 35.1046 68.9847 35.3691C67.9876 35.6133 66.9904 35.7354 65.9933 35.7354ZM82.7083 35.7354C81.5484 35.7354 80.5411 35.481 79.6864 34.9723C78.8317 34.4432 78.1805 33.7005 77.7328 32.744C77.2851 31.7672 77.0613 30.6073 77.0613 29.2642V19.3438H80.8158V28.4706C80.8158 29.3253 80.9481 30.0579 81.2126 30.6684C81.4772 31.2585 81.8638 31.7164 82.3725 32.042C82.8813 32.3676 83.4918 32.5304 84.204 32.5304C84.7331 32.5304 85.2113 32.449 85.6387 32.2862C86.0864 32.103 86.473 31.8588 86.7986 31.5536C87.1242 31.228 87.3786 30.8515 87.5617 30.4242C87.7448 29.9765 87.8364 29.4983 87.8364 28.9895V19.3438H91.5909V35.4302H87.928L87.8669 32.0725L88.5385 31.7062C88.2943 32.4795 87.8771 33.1714 87.287 33.7819C86.7172 34.372 86.0355 34.8502 85.2418 35.2165C84.4482 35.5624 83.6037 35.7354 82.7083 35.7354ZM95.9915 35.4302V19.3438H99.6849L99.746 24.4719L99.227 23.312C99.4509 22.498 99.8375 21.7654 100.387 21.1142C100.936 20.463 101.567 19.9543 102.279 19.588C103.012 19.2013 103.775 19.008 104.569 19.008C104.915 19.008 105.24 19.0385 105.546 19.0996C105.871 19.1606 106.136 19.2319 106.339 19.3133L105.332 23.4341C105.108 23.312 104.833 23.2102 104.508 23.1288C104.182 23.0474 103.857 23.0067 103.531 23.0067C103.022 23.0067 102.534 23.1085 102.066 23.312C101.618 23.4951 101.221 23.7597 100.875 24.1056C100.529 24.4515 100.255 24.8585 100.051 25.3266C99.8681 25.7743 99.7765 26.283 99.7765 26.8528V35.4302H95.9915ZM114.228 35.7354C112.905 35.7354 111.705 35.3691 110.626 34.6365C109.547 33.904 108.683 32.9068 108.031 31.6451C107.38 30.3835 107.055 28.9488 107.055 27.3412C107.055 25.7336 107.38 24.2989 108.031 23.0372C108.683 21.7756 109.568 20.7886 110.687 20.0764C111.806 19.3641 113.068 19.008 114.472 19.008C115.286 19.008 116.029 19.1301 116.7 19.3743C117.372 19.5982 117.962 19.9237 118.471 20.3511C118.98 20.7784 119.397 21.2668 119.722 21.8163C120.068 22.3657 120.302 22.9558 120.424 23.5867L119.6 23.373V19.3438H123.385V35.4302H119.57V31.5841L120.455 31.4315C120.312 31.9809 120.048 32.5202 119.661 33.0493C119.295 33.558 118.827 34.0159 118.257 34.4229C117.708 34.8095 117.087 35.1249 116.395 35.3691C115.724 35.6133 115.001 35.7354 114.228 35.7354ZM115.266 32.4083C116.141 32.4083 116.914 32.1946 117.586 31.7672C118.257 31.3399 118.776 30.7498 119.142 29.9968C119.529 29.2235 119.722 28.3383 119.722 27.3412C119.722 26.3644 119.529 25.4996 119.142 24.7466C118.776 23.9937 118.257 23.4035 117.586 22.9762C116.914 22.5489 116.141 22.3352 115.266 22.3352C114.391 22.3352 113.617 22.5489 112.946 22.9762C112.295 23.4035 111.786 23.9937 111.42 24.7466C111.053 25.4996 110.87 26.3644 110.87 27.3412C110.87 28.3383 111.053 29.2235 111.42 29.9968C111.786 30.7498 112.295 31.3399 112.946 31.7672C113.617 32.1946 114.391 32.4083 115.266 32.4083ZM129.478 35.4302V15.2535H133.232V35.4302H129.478ZM126.303 22.8236V19.3438H136.743V22.8236H126.303ZM146.809 35.7354C145.202 35.7354 143.767 35.3793 142.505 34.6671C141.244 33.9345 140.247 32.9373 139.514 31.6757C138.782 30.414 138.415 28.9793 138.415 27.3717C138.415 25.7641 138.782 24.3294 139.514 23.0678C140.247 21.8061 141.244 20.8191 142.505 20.1069C143.767 19.3743 145.202 19.008 146.809 19.008C148.397 19.008 149.821 19.3743 151.083 20.1069C152.345 20.8191 153.331 21.8061 154.044 23.0678C154.776 24.3294 155.143 25.7641 155.143 27.3717C155.143 28.9793 154.776 30.414 154.044 31.6757C153.331 32.9373 152.345 33.9345 151.083 34.6671C149.821 35.3793 148.397 35.7354 146.809 35.7354ZM146.809 32.4083C147.684 32.4083 148.458 32.1844 149.129 31.7367C149.821 31.289 150.36 30.6887 150.747 29.9358C151.154 29.1828 151.347 28.3282 151.327 27.3717C151.347 26.3949 151.154 25.5301 150.747 24.7771C150.36 24.0242 149.821 23.4341 149.129 23.0067C148.458 22.559 147.684 22.3352 146.809 22.3352C145.934 22.3352 145.141 22.559 144.429 23.0067C143.737 23.4341 143.197 24.0344 142.811 24.8077C142.424 25.5606 142.231 26.4153 142.231 27.3717C142.231 28.3282 142.424 29.1828 142.811 29.9358C143.197 30.6887 143.737 31.289 144.429 31.7367C145.141 32.1844 145.934 32.4083 146.809 32.4083ZM158.501 35.4302V19.3438H162.194L162.256 24.4719L161.737 23.312C161.96 22.498 162.347 21.7654 162.897 21.1142C163.446 20.463 164.077 19.9543 164.789 19.588C165.522 19.2013 166.285 19.008 167.078 19.008C167.424 19.008 167.75 19.0385 168.055 19.0996C168.381 19.1606 168.645 19.2319 168.849 19.3133L167.841 23.4341C167.618 23.312 167.343 23.2102 167.017 23.1288C166.692 23.0474 166.366 23.0067 166.041 23.0067C165.532 23.0067 165.043 23.1085 164.575 23.312C164.128 23.4951 163.731 23.7597 163.385 24.1056C163.039 24.4515 162.764 24.8585 162.561 25.3266C162.378 25.7743 162.286 26.283 162.286 26.8528V35.4302H158.501Z" fill="white"/>
<defs>
<filter id="filter0_d_111_7932" x="0" y="0" width="49.7082" height="50.1322" filterUnits="userSpaceOnUse" color-interpolation-filters="sRGB">
<feFlood flood-opacity="0" result="BackgroundImageFix"/>
<feColorMatrix in="SourceAlpha" type="matrix" values="0 0 0 0 0 0 0 0 0 0 0 0 0 0 0 0 0 0 127 0" result="hardAlpha"/>
<feOffset dx="0.423951" dy="0.847902"/>
<feGaussianBlur stdDeviation="0.211975"/>
<feComposite in2="hardAlpha" operator="out"/>
<feColorMatrix type="matrix" values="0 0 0 0 0 0 0 0 0 0 0 0 0 0 0 0 0 0 0.25 0"/>
<feBlend mode="normal" in2="BackgroundImageFix" result="effect1_dropShadow_111_7932"/>
<feBlend mode="normal" in="SourceGraphic" in2="effect1_dropShadow_111_7932" result="shape"/>
</filter>
<clipPath id="clip0_111_7932">
<rect x="6.25331" y="6.25342" width="36.3538" height="36.3538" rx="18.1769" fill="white"/>
</clipPath>
</defs>
</svg>
