<svg width="1440" height="1610" viewBox="0 0 1440 1610" fill="none" xmlns="http://www.w3.org/2000/svg">
<g opacity="0.5" clip-path="url(#clip0_40_1514)">
<path d="M1159.26 492.557L1159.77 491.086L1297.19 98.5015L1530.29 121.558L1530.38 122.184L1566.39 375.047L1159.26 492.557ZM1298.29 100.227L1161.81 490.146L1564.6 373.89L1528.88 123.035L1298.29 100.227Z" fill="#EEEEEE"/>
<path d="M592.341 1603.52L259.453 1550.1L261.014 1548.96L508.151 1368.73L508.626 1369.08L761.531 1555.38L759.954 1555.83L592.341 1603.52ZM263.523 1549.12L592.243 1601.88L757.934 1554.73L508.146 1370.73L263.523 1549.12Z" fill="#EEEEEE"/>
<path d="M1231.44 1597L1313.04 1344.33L1313.93 1344.91L1443.92 1430.39L1609.49 1302.15L1545.55 1499.15L1444 1432.37L1231.44 1597ZM1313.93 1346.84L1234.57 1592.54L1442.58 1431.43L1313.93 1346.84ZM1445.34 1431.33L1544.67 1496.64L1606.35 1306.63L1445.34 1431.33Z" fill="#EEEEEE"/>
<path d="M1266.15 1004.32L1265.19 1003.06L1012.96 672.328L1013.36 671.836L1160.65 490.11L1161.28 490.815L1355.16 707.407L1355.03 707.839L1266.15 1004.32ZM1015.01 672.357L1265.52 1000.83L1353.36 707.808L1160.71 492.592L1015.01 672.357Z" fill="#EEEEEE"/>
<path d="M1313.17 1346.44L1123.3 1128.36L1536.17 1082.05L1536.38 1082.67L1608.99 1305.06L1608.03 1305.19L1313.17 1346.44ZM1126.53 1129.62L1313.81 1344.72L1606.86 1303.73L1535.05 1083.79L1126.53 1129.62Z" fill="#EEEEEE"/>
<path d="M508.596 1370.63L732.176 1017.84L732.849 1018.24L1041.63 1202.48L817.705 1351.09L817.489 1351.1L508.596 1370.63ZM732.696 1020.03L511.644 1368.83L817.174 1349.51L1038.61 1202.55L732.696 1020.03Z" fill="#EEEEEE"/>
<path d="M1015.34 673.479L1013.8 673.127L608.159 580.241L608.378 579.433L694.815 260.578L893.892 388.524L893.99 388.752L1015.34 673.479ZM610.152 579.047L1012.62 671.207L892.608 389.61L695.793 263.121L610.152 579.047Z" fill="#EEEEEE"/>
<path d="M1536.67 566.809L1534.91 566.318L891.83 387.287L1057.94 178.023L1058.17 177.947L1298.15 98.3818L1298.46 98.9983L1536.67 566.809ZM894.6 386.387L1533.57 564.277L1297.34 100.345L1058.9 179.401L894.6 386.387Z" fill="#EEEEEE"/>
<path d="M392.209 800.176L322.365 388.108L323.425 388.226L651.958 424.824L609.878 580.057L609.728 580.209L392.209 800.176ZM324.307 389.945L393.271 796.812L608.434 579.228L649.912 426.217L324.307 389.945Z" fill="#EEEEEE"/>
<path d="M107.363 611.804L37.5898 200.159L38.1677 199.908L393.423 45.6821L393.12 47.1918L324.078 390.487L323.91 390.658L107.363 611.804ZM39.3877 201.132L108.424 608.421L322.594 389.703L391.239 48.3861L39.3877 201.132Z" fill="#EEEEEE"/>
<path d="M91.9297 1093.27L2.33203 714.72L2.6491 714.403L108.042 608.827L108.578 609.688L253.107 842.129L252.833 842.558L91.9297 1093.27ZM4.10409 715.221L92.6234 1089.21L251.203 842.116L107.746 611.399L4.10409 715.221Z" fill="#EEEEEE"/>
<path d="M100.726 1589.71L7.72705 1381.01L91.9763 1089.38L263.522 1340.13L263.229 1340.58L100.726 1589.71ZM9.43795 1380.89L100.993 1586.36L261.587 1340.15L92.5767 1093.1L9.43795 1380.89Z" fill="#EEEEEE"/>
<path d="M1235.27 1595.77L1232.94 1595.57L758.694 1555.77L758.958 1554.84L816.906 1349.22L817.737 1349.55L1084.09 1456.1L1084.2 1456.2L1235.27 1595.77ZM760.772 1554.34L1230.74 1593.77L1083.22 1457.48L817.97 1351.38L760.772 1554.34Z" fill="#EEEEEE"/>
<path d="M626.702 812.309L624.912 812.042L191.896 747.612L192.227 746.688L322.592 384.034L481.345 593.271L626.702 812.309ZM194.073 746.31L623.361 810.185L480.033 594.204L323.104 387.372L194.073 746.31Z" fill="#EEEEEE"/>
<path d="M260.676 1551.2L261.751 1339.81L261.979 1339.57L681.368 912.417L508.817 1370.24L508.622 1370.38L260.676 1551.2ZM263.357 1340.47L262.301 1548.02L507.481 1369.22L677.172 918.992L263.357 1340.47Z" fill="#EEEEEE"/>
<path d="M1083.04 1457.98L1039.25 1202.22L1039.58 1201.92L1265.63 995.246L1314.36 1346.05L1083.04 1457.98ZM1040.99 1202.81L1084.27 1455.6L1312.61 1345.11L1264.46 998.501L1040.99 1202.81Z" fill="#EEEEEE"/>
<path d="M261.79 1342.07L251.336 841.532L251.917 841.353L391.338 798.623L391.602 798.729L680.688 915.411L679.844 916.271L261.79 1342.07ZM252.971 842.713L263.319 1338.21L677.853 916L391.266 800.327L252.971 842.713Z" fill="#EEEEEE"/>
<path d="M1125.84 1130.08L1124.7 1129.76L733.069 1019.55L732.908 1019.24L623.761 810.557L624.957 810.448L1088.06 767.654L1088.14 768.446L1125.84 1130.08ZM734.175 1018.19L1124 1127.89L1086.62 769.402L626.299 811.94L734.175 1018.19Z" fill="#EEEEEE"/>
<path d="M1535.73 1085.33L1534.73 1083.27L1353.26 709.009L1353.74 708.606L1534.46 559.563L1597.45 812.788L1597.4 812.974L1535.73 1085.33ZM1355.25 709.445L1535.18 1080.5L1595.79 812.805L1533.52 562.43L1355.25 709.445Z" fill="#EEEEEE"/>
<path d="M831.929 632.039L831.141 631.144L537.281 297.82L537.97 297.295L868.948 45.46L1059.45 178.45L1059.14 179.073L831.929 632.039ZM539.633 298.053L831.557 629.185L1057.39 178.973L868.988 47.4509L539.633 298.053Z" fill="#EEEEEE"/>
<path d="M1309.06 99.364C1309.06 104.963 1304.52 109.504 1298.92 109.504C1293.32 109.504 1288.78 104.963 1288.78 99.364C1288.78 93.7645 1293.32 89.2241 1298.92 89.2241C1304.52 89.2241 1309.06 93.7629 1309.06 99.364Z" fill="#EEEEEE"/>
<path d="M1170.67 491.351C1170.67 496.95 1166.13 501.491 1160.53 501.491C1154.93 501.491 1150.39 496.95 1150.39 491.351C1150.39 485.75 1154.93 481.211 1160.53 481.211C1166.13 481.211 1170.67 485.75 1170.67 491.351Z" fill="#EEEEEE"/>
<path d="M1364.4 708.18C1364.4 713.779 1359.86 718.32 1354.26 718.32C1348.66 718.32 1344.11 713.779 1344.11 708.18C1344.11 702.58 1348.65 698.04 1354.26 698.04C1359.86 698.04 1364.4 702.58 1364.4 708.18Z" fill="#EEEEEE"/>
<path d="M1096.07 771.755C1096.07 777.355 1091.53 781.895 1085.93 781.895C1080.33 781.895 1075.79 777.355 1075.79 771.755C1075.79 766.156 1080.33 761.615 1085.93 761.615C1091.53 761.615 1096.07 766.156 1096.07 771.755Z" fill="#EEEEEE"/>
<path d="M903.356 386.746C903.356 392.346 898.817 396.886 893.216 396.886C887.616 396.886 883.074 392.346 883.074 386.746C883.074 381.147 887.615 376.606 893.216 376.606C898.815 376.606 903.356 381.145 903.356 386.746Z" fill="#EEEEEE"/>
<path d="M548.598 297.735C548.598 303.334 544.059 307.874 538.458 307.874C532.857 307.874 528.316 303.334 528.316 297.735C528.316 292.135 532.857 287.595 538.458 287.595C544.057 287.595 548.598 292.133 548.598 297.735Z" fill="#EEEEEE"/>
<path d="M879.271 46.4563C879.271 52.0557 874.732 56.5961 869.13 56.5961C863.53 56.5961 858.988 52.0557 858.988 46.4563C858.988 40.8568 863.53 36.3164 869.13 36.3164C874.731 36.3164 879.271 40.8552 879.271 46.4563Z" fill="#EEEEEE"/>
<path d="M333.477 389.026C333.477 394.625 328.938 399.165 323.335 399.165C317.736 399.165 313.194 394.625 313.194 389.026C313.194 383.426 317.736 378.886 323.335 378.886C328.938 378.887 333.477 383.426 333.477 389.026Z" fill="#EEEEEE"/>
<path d="M203.125 742.312C203.125 747.912 198.586 752.452 192.984 752.452C187.384 752.452 182.842 747.912 182.842 742.312C182.842 736.713 187.384 732.172 192.984 732.172C198.586 732.172 203.125 736.711 203.125 742.312Z" fill="#EEEEEE"/>
<path d="M48.6291 201.62C48.6291 207.22 44.0903 211.76 38.4877 211.76C32.8882 211.76 28.3462 207.22 28.3462 201.62C28.3462 196.021 32.8882 191.48 38.4877 191.48C44.0903 191.48 48.6291 196.019 48.6291 201.62Z" fill="#EEEEEE"/>
<path d="M619.297 575.684C619.297 581.284 614.758 585.824 609.156 585.824C603.556 585.824 599.014 581.284 599.014 575.684C599.014 570.083 603.556 565.544 609.156 565.544C614.758 565.544 619.297 570.083 619.297 575.684Z" fill="#EEEEEE"/>
<path d="M635.173 811.247C635.173 816.847 630.634 821.389 625.032 821.389C619.432 821.389 614.89 816.848 614.89 811.247C614.89 805.648 619.432 801.109 625.032 801.109C630.633 801.109 635.173 805.648 635.173 811.247Z" fill="#EEEEEE"/>
<path d="M1275.53 996.874C1275.53 1002.47 1270.99 1007.02 1265.39 1007.02C1259.79 1007.02 1255.25 1002.47 1255.25 996.874C1255.25 991.274 1259.79 986.734 1265.39 986.734C1270.99 986.734 1275.53 991.274 1275.53 996.874Z" fill="#EEEEEE"/>
<path d="M1024.12 672.341C1024.12 677.94 1019.59 682.482 1013.98 682.482C1008.38 682.482 1003.84 677.94 1003.84 672.341C1003.84 666.742 1008.38 662.201 1013.98 662.201C1019.58 662.203 1024.12 666.742 1024.12 672.341Z" fill="#EEEEEE"/>
<path d="M1327.51 1345.58C1327.51 1351.18 1322.97 1355.72 1317.37 1355.72C1311.77 1355.72 1307.23 1351.18 1307.23 1345.58C1307.23 1339.98 1311.77 1335.44 1317.37 1335.44C1322.97 1335.44 1327.51 1339.98 1327.51 1345.58Z" fill="#EEEEEE"/>
<path d="M1050.26 1204.47C1050.26 1210.07 1045.72 1214.61 1040.12 1214.61C1034.52 1214.61 1029.98 1210.07 1029.98 1204.47C1029.98 1198.87 1034.52 1194.33 1040.12 1194.33C1045.72 1194.33 1050.26 1198.87 1050.26 1204.47Z" fill="#EEEEEE"/>
<path d="M520.261 1369.73C520.261 1375.33 515.722 1379.87 510.119 1379.87C504.52 1379.87 499.978 1375.33 499.978 1369.73C499.978 1364.13 504.52 1359.59 510.119 1359.59C515.721 1359.59 520.261 1364.13 520.261 1369.73Z" fill="#EEEEEE"/>
<path d="M111.448 1588.04C111.448 1593.63 106.909 1598.18 101.307 1598.18C95.7071 1598.18 91.165 1593.63 91.165 1588.04C91.165 1582.43 95.7071 1577.89 101.307 1577.89C106.908 1577.89 111.448 1582.43 111.448 1588.04Z" fill="#EEEEEE"/>
<path d="M101.306 1091.24C101.306 1096.84 96.7676 1101.38 91.1649 1101.38C85.5654 1101.38 81.0234 1096.84 81.0234 1091.24C81.0234 1085.64 85.5654 1081.1 91.1649 1081.1C96.7676 1081.1 101.306 1085.64 101.306 1091.24Z" fill="#EEEEEE"/>
<path d="M769.873 1559.75C769.873 1565.35 765.334 1569.89 759.732 1569.89C754.132 1569.89 749.59 1565.35 749.59 1559.75C749.59 1554.15 754.132 1549.61 759.732 1549.61C765.334 1549.61 769.873 1554.15 769.873 1559.75Z" fill="#EEEEEE"/>
<path d="M1096.55 1456.79C1096.55 1462.39 1092.02 1466.93 1086.41 1466.93C1080.81 1466.93 1076.27 1462.39 1076.27 1456.79C1076.27 1451.19 1080.81 1446.65 1086.41 1446.65C1092.01 1446.65 1096.55 1451.19 1096.55 1456.79Z" fill="#EEEEEE"/>
<path d="M742.692 1018.93C742.692 1024.53 738.153 1029.07 732.551 1029.07C726.951 1029.07 722.409 1024.53 722.409 1018.93C722.409 1013.33 726.951 1008.79 732.551 1008.79C738.153 1008.79 742.692 1013.33 742.692 1018.93Z" fill="#EEEEEE"/>
<path d="M272.696 1339.64C272.696 1345.23 268.157 1349.78 262.555 1349.78C256.955 1349.78 252.413 1345.24 252.413 1339.64C252.413 1334.03 256.955 1329.5 262.555 1329.5C268.156 1329.5 272.696 1334.04 272.696 1339.64Z" fill="#EEEEEE"/>
</g>
<defs>
<clipPath id="clip0_40_1514">
<rect width="1609.5" height="1609.5" fill="white"/>
</clipPath>
</defs>
</svg>
