<svg width="1627" height="461" viewBox="0 0 1627 461" fill="none" xmlns="http://www.w3.org/2000/svg">
<rect width="461" height="461" rx="230.5" fill="#0060F7"/>
<g clip-path="url(#clip0_5_3)">
<rect x="59" y="59" width="343" height="343" rx="171.5" fill="white"/>
<rect x="202" y="111" width="240" height="240" rx="120" fill="#0060F7"/>
</g>
<path d="M653.608 341.38C639.016 341.38 625.672 338.884 613.576 333.892C601.48 328.9 591.016 321.796 582.184 312.58C573.352 303.172 566.44 292.132 561.448 279.46C556.648 266.596 554.248 252.58 554.248 237.412C554.248 222.82 556.84 209.284 562.024 196.804C567.208 184.324 574.408 173.38 583.624 163.972C592.84 154.564 603.592 147.268 615.88 142.084C628.168 136.9 641.512 134.308 655.912 134.308C665.704 134.308 675.208 135.748 684.424 138.628C693.64 141.508 702.088 145.54 709.768 150.724C717.448 155.716 723.88 161.572 729.064 168.292L705.16 194.5C700.168 189.316 694.984 184.996 689.608 181.54C684.424 177.892 678.952 175.204 673.192 173.476C667.624 171.556 661.864 170.596 655.912 170.596C647.08 170.596 638.728 172.228 630.856 175.492C623.176 178.756 616.456 183.364 610.696 189.316C605.128 195.268 600.712 202.372 597.448 210.628C594.184 218.692 592.552 227.716 592.552 237.7C592.552 247.876 594.088 257.092 597.16 265.348C600.424 273.604 604.936 280.708 610.696 286.66C616.648 292.612 623.656 297.22 631.72 300.484C639.976 303.556 649 305.092 658.792 305.092C665.128 305.092 671.272 304.228 677.224 302.5C683.176 300.772 688.648 298.372 693.64 295.3C698.824 292.036 703.528 288.292 707.752 284.068L726.184 313.732C721.576 318.916 715.432 323.62 707.752 327.844C700.072 332.068 691.432 335.428 681.832 337.924C672.424 340.228 663.016 341.38 653.608 341.38ZM811.315 341.38C800.371 341.38 790.867 338.98 782.803 334.18C774.739 329.188 768.595 322.18 764.371 313.156C760.147 303.94 758.035 292.996 758.035 280.324V186.724H793.459V272.836C793.459 280.9 794.707 287.812 797.203 293.572C799.699 299.14 803.347 303.46 808.147 306.532C812.947 309.604 818.707 311.14 825.427 311.14C830.419 311.14 834.931 310.372 838.963 308.836C843.187 307.108 846.835 304.804 849.907 301.924C852.979 298.852 855.379 295.3 857.107 291.268C858.835 287.044 859.699 282.532 859.699 277.732V186.724H895.123V338.5H860.563L859.987 306.82L866.323 303.364C864.019 310.66 860.083 317.188 854.515 322.948C849.139 328.516 842.707 333.028 835.219 336.484C827.731 339.748 819.763 341.38 811.315 341.38ZM936.642 338.5V186.724H971.49L972.066 235.108L967.17 224.164C969.282 216.484 972.93 209.572 978.114 203.428C983.298 197.284 989.25 192.484 995.97 189.028C1002.88 185.38 1010.08 183.556 1017.57 183.556C1020.83 183.556 1023.91 183.844 1026.79 184.42C1029.86 184.996 1032.35 185.668 1034.27 186.436L1024.77 225.316C1022.66 224.164 1020.07 223.204 1016.99 222.436C1013.92 221.668 1010.85 221.284 1007.78 221.284C1002.98 221.284 998.37 222.244 993.954 224.164C989.73 225.892 985.986 228.388 982.722 231.652C979.458 234.916 976.866 238.756 974.946 243.172C973.218 247.396 972.354 252.196 972.354 257.572V338.5H936.642ZM1108.7 341.38C1096.22 341.38 1084.9 337.924 1074.72 331.012C1064.54 324.1 1056.38 314.692 1050.24 302.788C1044.1 290.884 1041.02 277.348 1041.02 262.18C1041.02 247.012 1044.1 233.476 1050.24 221.572C1056.38 209.668 1064.74 200.356 1075.3 193.636C1085.86 186.916 1097.76 183.556 1111.01 183.556C1118.69 183.556 1125.7 184.708 1132.03 187.012C1138.37 189.124 1143.94 192.196 1148.74 196.228C1153.54 200.26 1157.47 204.868 1160.54 210.052C1163.81 215.236 1166.02 220.804 1167.17 226.756L1159.39 224.74V186.724H1195.1V338.5H1159.1V302.212L1167.46 300.772C1166.11 305.956 1163.62 311.044 1159.97 316.036C1156.51 320.836 1152.1 325.156 1146.72 328.996C1141.54 332.644 1135.68 335.62 1129.15 337.924C1122.82 340.228 1116 341.38 1108.7 341.38ZM1118.5 309.988C1126.75 309.988 1134.05 307.972 1140.38 303.94C1146.72 299.908 1151.62 294.34 1155.07 287.236C1158.72 279.94 1160.54 271.588 1160.54 262.18C1160.54 252.964 1158.72 244.804 1155.07 237.7C1151.62 230.596 1146.72 225.028 1140.38 220.996C1134.05 216.964 1126.75 214.948 1118.5 214.948C1110.24 214.948 1102.94 216.964 1096.61 220.996C1090.46 225.028 1085.66 230.596 1082.21 237.7C1078.75 244.804 1077.02 252.964 1077.02 262.18C1077.02 271.588 1078.75 279.94 1082.21 287.236C1085.66 294.34 1090.46 299.908 1096.61 303.94C1102.94 307.972 1110.24 309.988 1118.5 309.988ZM1252.59 338.5V148.132H1288.01V338.5H1252.59ZM1222.64 219.556V186.724H1321.13V219.556H1222.64ZM1416.11 341.38C1400.94 341.38 1387.41 338.02 1375.5 331.3C1363.6 324.388 1354.19 314.98 1347.28 303.076C1340.37 291.172 1336.91 277.636 1336.91 262.468C1336.91 247.3 1340.37 233.764 1347.28 221.86C1354.19 209.956 1363.6 200.644 1375.5 193.924C1387.41 187.012 1400.94 183.556 1416.11 183.556C1431.09 183.556 1444.53 187.012 1456.43 193.924C1468.34 200.644 1477.65 209.956 1484.37 221.86C1491.28 233.764 1494.74 247.3 1494.74 262.468C1494.74 277.636 1491.28 291.172 1484.37 303.076C1477.65 314.98 1468.34 324.388 1456.43 331.3C1444.53 338.02 1431.09 341.38 1416.11 341.38ZM1416.11 309.988C1424.37 309.988 1431.66 307.876 1438 303.652C1444.53 299.428 1449.62 293.764 1453.26 286.66C1457.1 279.556 1458.93 271.492 1458.74 262.468C1458.93 253.252 1457.1 245.092 1453.26 237.988C1449.62 230.884 1444.53 225.316 1438 221.284C1431.66 217.06 1424.37 214.948 1416.11 214.948C1407.86 214.948 1400.37 217.06 1393.65 221.284C1387.12 225.316 1382.03 230.98 1378.38 238.276C1374.74 245.38 1372.91 253.444 1372.91 262.468C1372.91 271.492 1374.74 279.556 1378.38 286.66C1382.03 293.764 1387.12 299.428 1393.65 303.652C1400.37 307.876 1407.86 309.988 1416.11 309.988ZM1526.42 338.5V186.724H1561.27L1561.85 235.108L1556.95 224.164C1559.06 216.484 1562.71 209.572 1567.9 203.428C1573.08 197.284 1579.03 192.484 1585.75 189.028C1592.66 185.38 1599.86 183.556 1607.35 183.556C1610.62 183.556 1613.69 183.844 1616.57 184.42C1619.64 184.996 1622.14 185.668 1624.06 186.436L1614.55 225.316C1612.44 224.164 1609.85 223.204 1606.78 222.436C1603.7 221.668 1600.63 221.284 1597.56 221.284C1592.76 221.284 1588.15 222.244 1583.74 224.164C1579.51 225.892 1575.77 228.388 1572.5 231.652C1569.24 234.916 1566.65 238.756 1564.73 243.172C1563 247.396 1562.14 252.196 1562.14 257.572V338.5H1526.42Z" fill="black"/>
<defs>
<clipPath id="clip0_5_3">
<rect x="59" y="59" width="343" height="343" rx="171.5" fill="white"/>
</clipPath>
</defs>
</svg>
